<svg xmlns="http://www.w3.org/2000/svg" viewBox="0 0 32 32" height="64" width="64"><title>content-files-pencil-brush</title><g><polygon points="30.48 22.1 28.96 22.1 28.96 23.62 25.91 23.62 25.91 26.67 22.86 26.67 22.86 29.72 21.34 29.72 21.34 31.24 32 31.24 32 29.72 30.48 29.72 30.48 22.1" fill="#000000"></polygon><rect x="28.96" y="5.34" width="1.52" height="3.04" fill="#000000"></rect><rect x="27.43" y="20.57" width="1.53" height="1.53" fill="#000000"></rect><rect x="27.43" y="8.38" width="1.53" height="1.53" fill="#000000"></rect><rect x="27.43" y="3.81" width="1.53" height="1.53" fill="#000000"></rect><rect x="25.91" y="9.91" width="1.52" height="1.52" fill="#000000"></rect><rect x="25.91" y="2.29" width="1.52" height="1.52" fill="#000000"></rect><rect x="24.39" y="11.43" width="1.52" height="1.53" fill="#000000"></rect><rect x="24.39" y="8.38" width="1.52" height="1.53" fill="#000000"></rect><rect x="22.86" y="0.76" width="3.05" height="1.53" fill="#000000"></rect><rect x="22.86" y="19.05" width="4.57" height="1.52" fill="#000000"></rect><rect x="22.86" y="12.96" width="1.53" height="1.52" fill="#000000"></rect><rect x="22.86" y="6.86" width="1.53" height="1.52" fill="#000000"></rect><rect x="21.34" y="20.57" width="1.52" height="1.53" fill="#000000"></rect><rect x="21.34" y="17.53" width="1.52" height="1.52" fill="#000000"></rect><rect x="21.34" y="14.48" width="1.52" height="1.52" fill="#000000"></rect><rect x="21.34" y="8.38" width="1.52" height="1.53" fill="#000000"></rect><rect x="21.34" y="5.34" width="1.52" height="1.52" fill="#000000"></rect><rect x="21.34" y="2.29" width="1.52" height="1.52" fill="#000000"></rect><rect x="19.81" y="28.19" width="1.53" height="1.53" fill="#000000"></rect><rect x="19.81" y="22.1" width="1.53" height="1.52" fill="#000000"></rect><rect x="19.81" y="16" width="1.53" height="1.53" fill="#000000"></rect><rect x="19.81" y="9.91" width="1.53" height="1.52" fill="#000000"></rect><rect x="19.81" y="3.81" width="1.53" height="1.53" fill="#000000"></rect><rect x="18.29" y="23.62" width="1.52" height="4.57" fill="#000000"></rect><rect x="18.29" y="17.53" width="1.52" height="1.52" fill="#000000"></rect><rect x="18.29" y="11.43" width="1.52" height="1.53" fill="#000000"></rect><rect x="18.29" y="5.34" width="1.52" height="1.52" fill="#000000"></rect><rect x="16.77" y="22.1" width="1.52" height="1.52" fill="#000000"></rect><rect x="16.77" y="19.05" width="1.52" height="1.52" fill="#000000"></rect><rect x="16.77" y="12.96" width="1.52" height="1.52" fill="#000000"></rect><rect x="16.77" y="6.86" width="1.52" height="1.52" fill="#000000"></rect><rect x="15.24" y="20.57" width="1.53" height="1.53" fill="#000000"></rect><rect x="15.24" y="14.48" width="1.53" height="1.52" fill="#000000"></rect><rect x="15.24" y="8.38" width="1.53" height="1.53" fill="#000000"></rect><rect x="13.72" y="22.1" width="1.52" height="1.52" fill="#000000"></rect><rect x="13.72" y="16" width="1.52" height="1.53" fill="#000000"></rect><rect x="13.72" y="9.91" width="1.52" height="1.52" fill="#000000"></rect><rect x="12.2" y="23.62" width="1.52" height="1.53" fill="#000000"></rect><rect x="12.2" y="17.53" width="1.52" height="1.52" fill="#000000"></rect><rect x="12.2" y="11.43" width="1.52" height="1.53" fill="#000000"></rect><rect x="12.2" y="8.38" width="1.52" height="1.53" fill="#000000"></rect><rect x="10.67" y="25.15" width="1.53" height="1.52" fill="#000000"></rect><rect x="10.67" y="19.05" width="1.53" height="1.52" fill="#000000"></rect><rect x="10.67" y="12.96" width="1.53" height="1.52" fill="#000000"></rect><rect x="10.67" y="6.86" width="1.53" height="1.52" fill="#000000"></rect><rect x="9.15" y="26.67" width="1.52" height="1.52" fill="#000000"></rect><rect x="9.15" y="20.57" width="1.52" height="1.53" fill="#000000"></rect><rect x="9.15" y="14.48" width="1.52" height="1.52" fill="#000000"></rect><rect x="9.15" y="5.34" width="1.52" height="1.52" fill="#000000"></rect><rect x="7.62" y="28.19" width="1.53" height="1.53" fill="#000000"></rect><rect x="7.62" y="22.1" width="1.53" height="1.52" fill="#000000"></rect><rect x="7.62" y="16" width="1.53" height="1.53" fill="#000000"></rect><rect x="7.62" y="12.96" width="1.53" height="1.52" fill="#000000"></rect><rect x="7.62" y="3.81" width="1.53" height="1.53" fill="#000000"></rect><rect x="6.1" y="26.67" width="1.52" height="1.52" fill="#000000"></rect><rect x="6.1" y="23.62" width="1.52" height="1.53" fill="#000000"></rect><rect x="6.1" y="17.53" width="1.52" height="1.52" fill="#000000"></rect><rect x="6.1" y="11.43" width="1.52" height="1.53" fill="#000000"></rect><rect x="6.1" y="2.29" width="1.52" height="1.52" fill="#000000"></rect><polygon points="4.58 28.19 3.05 28.19 3.05 26.67 1.53 26.67 1.53 23.62 0 23.62 0 31.24 7.62 31.24 7.62 29.72 4.58 29.72 4.58 28.19" fill="#000000"></polygon><rect x="4.58" y="25.15" width="1.52" height="1.52" fill="#000000"></rect><rect x="4.58" y="19.05" width="1.52" height="1.52" fill="#000000"></rect><rect x="4.58" y="9.91" width="1.52" height="1.52" fill="#000000"></rect><rect x="3.05" y="0.76" width="3.05" height="1.53" fill="#000000"></rect><rect x="3.05" y="23.62" width="1.53" height="1.53" fill="#000000"></rect><rect x="3.05" y="20.57" width="1.53" height="1.53" fill="#000000"></rect><rect x="3.05" y="8.38" width="1.53" height="1.53" fill="#000000"></rect><rect x="1.53" y="22.1" width="1.52" height="1.52" fill="#000000"></rect><rect x="1.53" y="6.86" width="1.52" height="1.52" fill="#000000"></rect><rect x="1.53" y="2.29" width="1.52" height="1.52" fill="#000000"></rect><rect y="3.81" width="1.53" height="3.05" fill="#000000"></rect></g></svg>