<svg xmlns="http://www.w3.org/2000/svg" viewBox="0 0 32 32" height="64" width="64"><title>interface-essential-poll</title><g><rect y="28.955" width="32" height="1.52" fill="#000000"></rect><polygon points="24.38 1.525 24.38 3.045 22.85 3.045 22.85 25.905 24.38 25.905 24.38 27.425 28.95 27.425 28.95 25.905 30.47 25.905 30.47 3.045 28.95 3.045 28.95 1.525 24.38 1.525" fill="#000000"></polygon><rect x="15.24" y="22.855" width="1.52" height="1.52" fill="#000000"></rect><rect x="15.24" y="18.285" width="1.52" height="1.52" fill="#000000"></rect><rect x="15.24" y="13.715" width="1.52" height="1.52" fill="#000000"></rect><rect x="15.24" y="9.145" width="1.52" height="1.52" fill="#000000"></rect><polygon points="16.76 9.145 18.28 9.145 18.28 12.185 16.76 12.185 16.76 13.715 18.28 13.715 18.28 16.765 16.76 16.765 16.76 18.285 18.28 18.285 18.28 21.335 16.76 21.335 16.76 22.855 18.28 22.855 18.28 25.905 19.81 25.905 19.81 7.615 18.28 7.615 18.28 6.095 13.71 6.095 13.71 7.615 16.76 7.615 16.76 9.145" fill="#000000"></polygon><polygon points="18.28 27.425 18.28 25.905 15.24 25.905 15.24 24.375 13.71 24.375 13.71 21.335 15.24 21.335 15.24 19.805 13.71 19.805 13.71 16.765 15.24 16.765 15.24 15.235 13.71 15.235 13.71 12.185 15.24 12.185 15.24 10.665 13.71 10.665 13.71 7.615 12.19 7.615 12.19 25.905 13.71 25.905 13.71 27.425 18.28 27.425" fill="#000000"></polygon><rect x="7.62" y="16.765" width="1.52" height="9.14" fill="#000000"></rect><rect x="3.05" y="25.905" width="4.57" height="1.52" fill="#000000"></rect><rect x="3.05" y="15.235" width="4.57" height="1.53" fill="#000000"></rect><rect x="1.52" y="16.765" width="1.53" height="9.14" fill="#000000"></rect></g></svg>