<svg xmlns="http://www.w3.org/2000/svg" viewBox="0 0 32 32" height="64" width="64"><title>chat-email</title><g><rect x="30.47" y="1.53" width="1.53" height="15.24" fill="#000000"></rect><polygon points="28.95 19.81 27.43 19.81 27.43 21.34 30.47 21.34 30.47 16.77 28.95 16.77 28.95 19.81" fill="#000000"></polygon><rect x="25.9" y="18.29" width="1.53" height="1.52" fill="#000000"></rect><rect x="24.38" y="12.19" width="4.57" height="1.53" fill="#000000"></rect><rect x="24.38" y="9.15" width="4.57" height="1.52" fill="#000000"></rect><rect x="25.9" y="6.1" width="3.05" height="1.52" fill="#000000"></rect><rect x="21.33" y="3.05" width="7.62" height="1.53" fill="#000000"></rect><rect x="24.38" y="16.77" width="1.52" height="1.52" fill="#000000"></rect><polygon points="22.86 15.24 22.86 10.67 21.33 10.67 21.33 25.91 22.86 25.91 22.86 16.77 24.38 16.77 24.38 15.24 22.86 15.24" fill="#000000"></polygon><rect x="12.19" y="6.1" width="12.19" height="1.52" fill="#000000"></rect><rect x="15.24" y="25.91" width="6.09" height="1.52" fill="#000000"></rect><rect x="15.24" y="3.05" width="4.57" height="1.53" fill="#000000"></rect><path d="M4.57,13.72v9.14H18.28V13.72Zm12.19,3.05H15.24v1.52H13.71v1.52H9.14V18.29H7.62V16.77H6.09V15.24H7.62v1.53H9.14v1.52h4.57V16.77h1.53V15.24h1.52Z" fill="#000000"></path><polygon points="13.71 30.48 12.19 30.48 12.19 32 15.24 32 15.24 27.43 13.71 27.43 13.71 30.48" fill="#000000"></polygon><rect x="12.19" y="3.05" width="1.52" height="1.53" fill="#000000"></rect><rect x="10.66" width="19.81" height="1.53" fill="#000000"></rect><rect x="10.66" y="28.96" width="1.53" height="1.52" fill="#000000"></rect><rect x="9.14" y="27.43" width="1.52" height="1.53" fill="#000000"></rect><rect x="1.52" y="25.91" width="7.62" height="1.52" fill="#000000"></rect><polygon points="21.33 10.67 21.33 9.15 10.66 9.15 10.66 1.53 9.14 1.53 9.14 9.15 1.52 9.15 1.52 10.67 21.33 10.67" fill="#000000"></polygon><rect y="10.67" width="1.52" height="15.24" fill="#000000"></rect></g></svg>