<svg xmlns="http://www.w3.org/2000/svg" viewBox="0 0 32 32" height="64" width="64"><title>business-money-coin-currency</title><g><polygon points="18.285 6.095 21.335 6.095 21.335 7.615 22.855 7.615 22.855 9.145 24.385 9.145 24.385 12.195 25.905 12.195 25.905 19.805 24.385 19.805 24.385 22.855 22.855 22.855 22.855 24.385 21.335 24.385 21.335 25.905 18.285 25.905 18.285 27.425 10.665 27.425 10.665 28.955 21.335 28.955 21.335 27.425 24.385 27.425 24.385 25.905 25.905 25.905 25.905 24.385 27.435 24.385 27.435 22.855 28.955 22.855 28.955 19.805 30.475 19.805 30.475 12.195 28.955 12.195 28.955 9.145 27.435 9.145 27.435 7.615 25.905 7.615 25.905 6.095 24.385 6.095 24.385 4.575 21.335 4.575 21.335 3.045 10.665 3.045 10.665 4.575 18.285 4.575 18.285 6.095" fill="#000000"></polygon><rect x="22.855" y="12.195" width="1.53" height="7.61" fill="#000000"></rect><rect x="21.335" y="19.805" width="1.52" height="1.53" fill="#000000"></rect><rect x="21.335" y="10.665" width="1.52" height="1.53" fill="#000000"></rect><rect x="19.815" y="21.335" width="1.52" height="1.52" fill="#000000"></rect><rect x="19.815" y="9.145" width="1.52" height="1.52" fill="#000000"></rect><rect x="18.285" y="22.855" width="1.53" height="1.53" fill="#000000"></rect><rect x="18.285" y="7.615" width="1.53" height="1.53" fill="#000000"></rect><rect x="10.665" y="24.385" width="7.62" height="1.52" fill="#000000"></rect><rect x="16.765" y="16.765" width="1.52" height="3.04" fill="#000000"></rect><rect x="16.765" y="12.195" width="1.52" height="1.52" fill="#000000"></rect><rect x="10.665" y="6.095" width="7.62" height="1.52" fill="#000000"></rect><polygon points="13.715 21.335 13.715 22.855 15.235 22.855 15.235 21.335 16.765 21.335 16.765 19.805 15.235 19.805 15.235 16.765 16.765 16.765 16.765 15.235 15.235 15.235 15.235 12.195 16.765 12.195 16.765 10.665 15.235 10.665 15.235 9.145 13.715 9.145 13.715 10.665 12.195 10.665 12.195 12.195 13.715 12.195 13.715 15.235 12.195 15.235 12.195 16.765 13.715 16.765 13.715 19.805 12.195 19.805 12.195 21.335 13.715 21.335" fill="#000000"></polygon><rect x="10.665" y="18.285" width="1.53" height="1.52" fill="#000000"></rect><rect x="10.665" y="12.195" width="1.53" height="3.04" fill="#000000"></rect><rect x="7.625" y="25.905" width="3.04" height="1.52" fill="#000000"></rect><rect x="9.145" y="22.855" width="1.52" height="1.53" fill="#000000"></rect><rect x="9.145" y="7.615" width="1.52" height="1.53" fill="#000000"></rect><rect x="7.625" y="4.575" width="3.04" height="1.52" fill="#000000"></rect><rect x="7.625" y="21.335" width="1.52" height="1.52" fill="#000000"></rect><rect x="7.625" y="9.145" width="1.52" height="1.52" fill="#000000"></rect><rect x="6.095" y="24.385" width="1.53" height="1.52" fill="#000000"></rect><rect x="6.095" y="19.805" width="1.53" height="1.53" fill="#000000"></rect><rect x="6.095" y="10.665" width="1.53" height="1.53" fill="#000000"></rect><rect x="6.095" y="6.095" width="1.53" height="1.52" fill="#000000"></rect><rect x="4.575" y="22.855" width="1.52" height="1.53" fill="#000000"></rect><rect x="4.575" y="12.195" width="1.52" height="7.61" fill="#000000"></rect><rect x="4.575" y="7.615" width="1.52" height="1.53" fill="#000000"></rect><rect x="3.045" y="19.805" width="1.53" height="3.05" fill="#000000"></rect><rect x="3.045" y="9.145" width="1.53" height="3.05" fill="#000000"></rect><rect x="1.525" y="12.195" width="1.52" height="7.61" fill="#000000"></rect></g></svg>