<svg xmlns="http://www.w3.org/2000/svg" viewBox="0 0 32 32" height="64" width="64"><title>interface-essential-flash</title><g><rect x="29.71" y="8.38" width="1.53" height="1.52" fill="#000000"></rect><rect x="28.19" y="9.9" width="1.52" height="1.53" fill="#000000"></rect><rect x="28.19" y="6.86" width="1.52" height="1.52" fill="#000000"></rect><rect x="26.67" y="8.38" width="1.52" height="1.52" fill="#000000"></rect><polygon points="26.67 28.19 26.67 26.66 28.19 26.66 28.19 25.14 26.67 25.14 26.67 23.62 25.14 23.62 25.14 25.14 23.62 25.14 23.62 26.66 25.14 26.66 25.14 28.19 26.67 28.19" fill="#000000"></polygon><rect x="25.14" y="12.95" width="1.53" height="3.05" fill="#000000"></rect><rect x="23.62" y="16" width="1.52" height="1.52" fill="#000000"></rect><rect x="23.62" y="3.81" width="1.52" height="1.52" fill="#000000"></rect><rect x="22.09" y="17.52" width="1.53" height="1.53" fill="#000000"></rect><rect x="22.09" y="5.33" width="1.53" height="1.53" fill="#000000"></rect><rect x="20.57" y="19.05" width="1.52" height="1.52" fill="#000000"></rect><rect x="20.57" y="6.86" width="1.52" height="1.52" fill="#000000"></rect><rect x="19.05" y="20.57" width="1.52" height="1.52" fill="#000000"></rect><rect x="19.05" y="8.38" width="1.52" height="1.52" fill="#000000"></rect><rect x="17.52" y="29.71" width="1.53" height="1.53" fill="#000000"></rect><rect x="17.52" y="22.09" width="1.53" height="1.53" fill="#000000"></rect><polygon points="17.52 9.9 17.52 11.43 16 11.43 16 12.95 25.14 12.95 25.14 11.43 19.05 11.43 19.05 9.9 17.52 9.9" fill="#000000"></polygon><rect x="16" y="23.62" width="1.52" height="1.52" fill="#000000"></rect><polygon points="25.14 2.28 25.14 3.81 26.67 3.81 26.67 0.76 14.48 0.76 14.48 2.28 25.14 2.28" fill="#000000"></polygon><rect x="14.48" y="25.14" width="1.52" height="1.52" fill="#000000"></rect><rect x="12.95" y="26.66" width="1.53" height="1.53" fill="#000000"></rect><rect x="12.95" y="2.28" width="1.53" height="1.53" fill="#000000"></rect><rect x="11.43" y="28.19" width="1.52" height="1.52" fill="#000000"></rect><polygon points="12.95 16 3.81 16 3.81 17.52 11.43 17.52 11.43 20.57 12.95 20.57 12.95 16" fill="#000000"></polygon><rect x="11.43" y="3.81" width="1.52" height="1.52" fill="#000000"></rect><rect x="9.9" y="29.71" width="1.53" height="1.53" fill="#000000"></rect><rect x="9.9" y="20.57" width="1.53" height="4.57" fill="#000000"></rect><rect x="9.9" y="5.33" width="1.53" height="1.53" fill="#000000"></rect><rect x="8.38" y="25.14" width="1.52" height="4.57" fill="#000000"></rect><rect x="8.38" y="6.86" width="1.52" height="1.52" fill="#000000"></rect><rect x="6.86" y="8.38" width="1.52" height="1.52" fill="#000000"></rect><rect x="5.33" y="9.9" width="1.53" height="1.53" fill="#000000"></rect><rect x="3.81" y="22.09" width="1.52" height="1.53" fill="#000000"></rect><rect x="3.81" y="11.43" width="1.52" height="1.52" fill="#000000"></rect><polygon points="3.81 0.76 3.81 2.28 2.29 2.28 2.29 3.81 3.81 3.81 3.81 5.33 5.33 5.33 5.33 3.81 6.86 3.81 6.86 2.28 5.33 2.28 5.33 0.76 3.81 0.76" fill="#000000"></polygon><rect x="2.29" y="23.62" width="1.52" height="1.52" fill="#000000"></rect><rect x="2.29" y="20.57" width="1.52" height="1.52" fill="#000000"></rect><rect x="2.29" y="12.95" width="1.52" height="3.05" fill="#000000"></rect><rect x="0.76" y="22.09" width="1.53" height="1.53" fill="#000000"></rect></g></svg>