<svg xmlns="http://www.w3.org/2000/svg" viewBox="0 0 430 430">
  <defs>
    <style>
      .cls-1 {
        isolation: isolate;
      }

      .cls-2, .cls-3 {
        fill: #ebe6ef;
      }

      .cls-3 {
        mix-blend-mode: multiply;
        opacity: 0.5;
      }

      .cls-4 {
        fill: #646e78;
      }

      .cls-5 {
        fill: #090b2e;
      }
    </style>
  </defs>
  <g class="cls-1">
    <g id="Warstwa_1" data-name="Warstwa 1">
      <g>
        <rect class="cls-2" x="42.34" y="56.23" width="320.24" height="67.9"/>
        <path class="cls-3" d="M362.06,59.23v64.9H41.82V59.23a3,3,0,0,1,3-3H359.06A3,3,0,0,1,362.06,59.23Z"/>
        <path class="cls-2" d="M362.58,124.24V326.31a3,3,0,0,1-3,3H45.34a3,3,0,0,1-3-3V124.24Z"/>
        <g>
          <path class="cls-4" d="M77.93,96.17h-.16a6,6,0,0,1,0-12h.16a6,6,0,0,1,0,12Z"/>
          <path class="cls-4" d="M114.85,96.17h-.16a6,6,0,0,1,0-12h.16a6,6,0,0,1,0,12Z"/>
          <path class="cls-4" d="M151.77,96.17h-.16a6,6,0,0,1,0-12h.16a6,6,0,0,1,0,12Z"/>
        </g>
        <path class="cls-5" d="M362.32,335.3H359a6,6,0,0,1,0-12h1.69a6.08,6.08,0,0,1,1.61-.22,6,6,0,0,1,6,6v.22A6,6,0,0,1,362.32,335.3Z"/>
        <path class="cls-4" d="M388.18,278.44A83.23,83.23,0,0,0,379,250l-20,.56,6.72-18.88a84.55,84.55,0,0,0-24.19-17.59l-15.88,12.23-5.66-19.22a84.8,84.8,0,0,0-29.92,0l-5.66,19.22-15.88-12.23a84.55,84.55,0,0,0-24.19,17.59L251,250.55,230.92,250a83.23,83.23,0,0,0-9.22,28.45l16.52,11.32L221.7,301.08a83.29,83.29,0,0,0,9.23,28.46l20-.56-6.71,18.87a84,84,0,0,0,24.17,17.59l15.89-12.23L290,372.44a84.69,84.69,0,0,0,29.9,0l5.67-19.23,15.89,12.23a84,84,0,0,0,24.17-17.59L358.91,329l20,.56a83.29,83.29,0,0,0,9.23-28.46l-16.52-11.32Zm-83.24,35.91a24.59,24.59,0,1,1,24.59-24.58A24.57,24.57,0,0,1,304.94,314.35Z"/>
        <g>
          <path class="cls-5" d="M390.16,298.2l-12.31-8.44,12.31-8.43a3.49,3.49,0,0,0,1.49-3.35,86.73,86.73,0,0,0-9.6-29.65,3.51,3.51,0,0,0-3.18-1.84l-13.05.37v-5.28l3.11-8.73a3.51,3.51,0,0,0-.77-3.6c-.76-.8-1.55-1.57-2.34-2.33V124.23s0,0,0-.07V56.23a3.5,3.5,0,0,0-3.5-3.5H42.08a3.5,3.5,0,0,0-3.5,3.5V329.3a3.5,3.5,0,0,0,3.5,3.5H245.9L241,346.68a3.48,3.48,0,0,0,.76,3.59,87.19,87.19,0,0,0,25.18,18.33,3.54,3.54,0,0,0,3.66-.38l11.84-9.12,4.23,14.33a3.5,3.5,0,0,0,2.73,2.46,88.58,88.58,0,0,0,31.15,0,3.5,3.5,0,0,0,2.73-2.46l4.23-14.33,11.84,9.12a3.51,3.51,0,0,0,3.66.38,87.28,87.28,0,0,0,25.17-18.33,3.49,3.49,0,0,0,.77-3.59l-5-14.06,14.94.42A3.46,3.46,0,0,0,382,331.2a86.67,86.67,0,0,0,9.61-29.65A3.48,3.48,0,0,0,390.16,298.2ZM45.58,59.73H358.82v60.89H45.58Zm0,266.07V127.73H358.82v93.09A88.27,88.27,0,0,0,343,210.93a3.51,3.51,0,0,0-3.66.38l-11.83,9.11-4.22-14.32a3.48,3.48,0,0,0-2.74-2.45,88.58,88.58,0,0,0-31.15,0,3.48,3.48,0,0,0-2.74,2.45l-4.22,14.32-11.83-9.11a3.51,3.51,0,0,0-3.66-.38,87.76,87.76,0,0,0-25.19,18.32,3.49,3.49,0,0,0-.77,3.6l5,14.06L231,246.49a3.49,3.49,0,0,0-3.18,1.84A86.9,86.9,0,0,0,218.23,278a3.53,3.53,0,0,0,1.49,3.35L232,289.76l-12.31,8.44a3.52,3.52,0,0,0-1.49,3.35,86.67,86.67,0,0,0,7,24.25Zm331.28.18-17.85-.5a3.5,3.5,0,0,0-3.39,4.68l6,16.8a79.94,79.94,0,0,1-19.74,14.37L327.7,350.44a3.49,3.49,0,0,0-5.49,1.78l-5,17.13a81.33,81.33,0,0,1-24.43,0l-5.05-17.13a3.53,3.53,0,0,0-2.28-2.34,3.49,3.49,0,0,0-3.21.56L268,361.33A80,80,0,0,1,248.29,347l6-16.8a3.51,3.51,0,0,0-3.39-4.68l-11.28.32h-6.66a79.73,79.73,0,0,1-7.46-23.06l14.72-10.09a3.5,3.5,0,0,0,0-5.77l-14.72-10.09A79.79,79.79,0,0,1,233,253.55l17.87.5a3.5,3.5,0,0,0,3.39-4.67l-6-16.82a80.63,80.63,0,0,1,19.76-14.37l14.14,10.9a3.5,3.5,0,0,0,5.49-1.79l5-17.11a81.46,81.46,0,0,1,24.45,0l5,17.11a3.46,3.46,0,0,0,2.27,2.34,3.51,3.51,0,0,0,3.22-.55l14.14-10.9a81.08,81.08,0,0,1,19.76,14.37l-6,16.82a3.48,3.48,0,0,0,.46,3.23,3.52,3.52,0,0,0,2.93,1.44l17.86-.5a79.5,79.5,0,0,1,7.53,23.24l-14.72,10.09a3.5,3.5,0,0,0,0,5.77l14.72,10.09A79.41,79.41,0,0,1,376.86,326Z"/>
          <path class="cls-5" d="M304.94,317.85A28.09,28.09,0,1,1,333,289.77,28.12,28.12,0,0,1,304.94,317.85Zm0-49.17A21.09,21.09,0,1,0,326,289.77,21.11,21.11,0,0,0,304.94,268.68Z"/>
        </g>
      </g>
    </g>
  </g>
</svg>
