<?xml version="1.0" encoding="UTF-8"?>
<svg viewBox="0 0 754.82 518.09" xmlns="http://www.w3.org/2000/svg">
 <g stroke="#000">
  <g fill-rule="evenodd" stroke-width="3.11">
   <g fill="#bfbfbf">
    <path d="m320.92 399.25s10.519 64.75 13.147 87.626c2.632 22.916 29.574 29.684 54.086 25.563 24.302-1.6729 38.232-12.395 39.951-32.169-3.0638-24.749-24.248-90.6-24.248-90.6s-40.826-7.0402-51.143-4.3341c-10.317 2.706-31.793 13.914-31.793 13.914z"/>
    <path d="m453.72 259.88s158-74.106 208.13-100.29c51.604-26.959 125.19 1.8324 75.334 38.334-73.649 53.925-238.32 115.49-238.32 115.49s-48.062-3.4865-47.261-14.718c0.80063-11.232 2.1227-38.81 2.1227-38.81z"/>
    <path d="m265.33 279.6s-171.87-72.243-181.62-75.31c-10.109-3.1829-27.336-9.8204-38.128-10.857-24.882-2.3892-65.398 22.923-30.786 46.485 24.279 16.528 62.128 28.827 96.906 43.006 60.137 24.519 116.49 46.448 116.49 46.448s43.8-12.221 42.733-22.012c-1.0677-9.7915-5.5973-27.761-5.5973-27.761z"/>
   </g>
   <path d="m355 381.94l5.1462 16.166s-25.695 3.1358-21.93 9.0483c1.3112 2.059 3.9608 2.7413 5.6866 3.1346 6.0173 1.3713 9.6777-1.8561 14.815-0.17175 5.6919 1.8661 3.044 4.7665 5.5877 7.7006 1.3796 1.5914 6.2165 4.0881 8.3558 3.6675 9.1388-1.7964 5.4623-7.4706 7.1281-8.4257 3.8065-2.1821 15.332-2.4096 20.554-4.0568 3.4141-1.0769 1.6657-4.4477-2.5338-5.9937-3.6296-1.3362-6.0571-2.0484-8.9564-2.3937-6.5476-0.77991-13.104-2.0087-13.104-2.0087l-4.9065-15.092-15.842-1.5749v-6.1e-5z" fill="#999"/>
   <path d="m357.45 69.952l-30.751 3.7518v166.96h41.001l-10.25-170.71z" fill="#7f7f7f"/>
   <g fill="#999">
    <path d="m279.59 15.551l36.855 69.408s34.851 13.048 51.251 1.8758c9.8759-6.7273 12.969-22.323 19.001-36.91 8.4532-20.444 17.9-40.002 17.9-40.002s-74.23-23.295-125.01 5.6277z"/>
    <path d="m296.37 293.24s3.696-19.566 9.7293-35.49 18.121-31.606 18.121-31.606 32.42-10.766 47.603 1.7886c19.871 16.431 39.004 64.528 39.004 64.528s-54.926 21.751-114.46 0.77942z"/>
   </g>
   <g fill="#7f7f7f">
    <path d="m297.37 292.24s3.696-19.566 9.7293-35.49 18.121-31.606 18.121-31.606 32.42-10.766 47.603 1.7886c19.871 16.431 39.004 64.528 39.004 64.528s-54.926 21.751-114.46 0.77942z"/>
    <path d="m277.5 306.17c-1.8095 7.6986-4.1574 33.9-2.9467 39.937 11.778 58.734 156.65 39.256 169.53-3.4299 0.3605-1.1942 1.4997 0.9079 2.0077-4.3815 0.35696-3.7169 0.40222-14.97-0.35336-16.785 8.2905-50.166-126.98-60.47-168.24-15.341z"/>
    <path d="m275.67 336.46c-3.0234 12.863-0.54108 21.019 5.0505 28.557 7.4326 10.021 20.639 17.671 36.434 21.379 31.934 7.4966 73.563 4.8153 101.78-6.9914 17.654-7.3868 26.753-19.967 26.803-29.94 10.596-29.719-39.548-44.796-89.232-42.324-31.953 1.5895-65.54 12.44-80.834 29.32z"/>
   </g>
  </g>
  <g fill="#999">
   <g fill-rule="evenodd" stroke-width="3.11">
    <path d="m437.4 310.07l36.762-16.836s-21.809-19.383-3.2674-18.552c16.822 0.7536 16.963 4.2809 25.15 6.4926 7.0498 1.9043 11.698-1.154 19.257-2.9948 4.0994-0.99835 6.4406-0.12402 7.5139 1.6066 1.8834 3.0367-2.3265 9.0434-3.4138 11.525-4.1083 9.3765 22.541 20.689-4.1001 16.883-2.2463-0.32086-5.607 3.5396-7.4898 1.4428-10.725-11.944-18.38-7.1975-18.38-7.1975l-41.782 15.134-10.25-7.5036z"/>
    <path d="m284.51 323.08l-33.653-11.733s17.178-18.59 1.0892-16.398c-14.597 1.9887-14.385 5.0684-21.315 7.6412-5.9667 2.2153-10.31-0.076782-17.076-1.0792-3.6694-0.5437-5.6279 0.40253-6.3996 1.993-1.3542 2.791 2.8866 7.6828 4.07 9.7552 3.38 5.9192-5.3419 11.061-1.444 12.407 2.0851 0.72009 1.0334 3.2679 6.6208 1.9553 22.883-5.3757 22.012-7.0563 22.012-7.0563l37.869 9.8548 8.2262-7.34z"/>
   </g>
   <g stroke-width="1.747">
    <path d="m224.16 318.27a4.6553 2.2401 0 1 1 -9.3106 3.7969 4.6553 2.2401 0 1 1 9.3106 -3.7969z"/>
    <path d="m250.69 301.96a4.6553 2.2401 0 1 1 -9.3106 3.7969 4.6553 2.2401 0 1 1 9.3106 -3.7969z"/>
   </g>
   <g stroke-width="1.529">
    <path d="m484.19 290.97a5.2041 2.5101 0 1 1 -10.408 -4.7621 5.2041 2.5101 0 1 1 10.408 4.7621z"/>
    <path d="m514.3 308.35a5.2041 2.5101 0 1 1 -10.408 -4.7621 5.2041 2.5101 0 1 1 10.408 4.7621z"/>
   </g>
   <path d="m354.59 406a4.6977 2.017 0 1 1 -9.3954 -0.76724 4.6977 2.017 0 1 1 9.3954 0.76724z" stroke-width="1.998"/>
   <path d="m391.46 406.54a4.7814 2.1968 0 1 1 -9.5627 -0.85428 4.7814 2.1968 0 1 1 9.5627 0.85428z" stroke-width="1.897"/>
   <path d="m374.9 416.74a4.2375 2.2251 0 1 1 -8.475 -0.86526 4.2375 2.2251 0 1 1 8.475 0.86526z" stroke-width="2.002"/>
   <path d="m221.5 307.3a3.4189 1.7531 0 1 1 -6.8378 2.9715 3.4189 1.7531 0 1 1 6.8378 -2.9715z" stroke-width="2.305"/>
   <path d="m515.26 292.74a4.1526 1.7434 0 1 1 -8.3052 -3.359 4.1526 1.7434 0 1 1 8.3052 3.359z" stroke-width="2.054"/>
   <g stroke-width="1.472">
    <path d="m403.61 352.1a43.977 14.17 0 1 1 -87.954 1.9994 43.977 14.17 0 1 1 87.954 -1.9994z"/>
    <path d="m403.61 352.1a43.977 14.17 0 1 1 -87.954 1.9994 43.977 14.17 0 1 1 87.954 -1.9994z"/>
   </g>
  </g>
 </g>
</svg>
